HIERARCHY
ROOT Pelvis
{
	OFFSET 0.000000 0.000000 0.000000
	CHANNELS 6 Xposition Yposition Zposition Xrotation Yrotation Zrotation
	JOINT LeftUpLeg_virtual
	{
		OFFSET 0.000000 0.000000 0.000000
		CHANNELS 3 Xrotation Yrotation Zrotation
		JOINT LeftUpLeg
		{
			OFFSET 18.735201 -5.666702 -4.541200
			CHANNELS 3 Xrotation Yrotation Zrotation
			JOINT LeftLeg
			{
				OFFSET -0.021200 -31.938179 0.493100
				CHANNELS 3 Xrotation Yrotation Zrotation
				JOINT LeftFoot
				{
					OFFSET 0.021200 -31.938179 -4.336299
					CHANNELS 3 Xrotation Yrotation Zrotation
					JOINT LeftToeBase
					{
						OFFSET 0.943001 -26.722000 15.023500
						CHANNELS 3 Xrotation Yrotation Zrotation
						End Site
						{
							OFFSET 0 0 0
						}
					}
				}
			}
		}
	}
	JOINT RightUpLeg_virtual
	{
		OFFSET 0.000000 0.000000 0.000000
		CHANNELS 3 Xrotation Yrotation Zrotation
		JOINT RightUpLeg
		{
			OFFSET -18.735201 -5.666702 -4.541200
			CHANNELS 3 Xrotation Yrotation Zrotation
			JOINT RightLeg
			{
				OFFSET 0.018946 -31.938133 0.493100
				CHANNELS 3 Xrotation Yrotation Zrotation
				JOINT RightFoot
				{
					OFFSET -0.018946 -31.938126 -4.336299
					CHANNELS 3 Xrotation Yrotation Zrotation
					JOINT RightToeBase
					{
						OFFSET -0.943001 -26.722004 15.023500
						CHANNELS 3 Xrotation Yrotation Zrotation
						End Site
						{
							OFFSET 0 0 0
						}
					}
				}
			}
		}
	}
	JOINT Hips_virtual
	{
		OFFSET 0.000000 0.000000 0.000000
		CHANNELS 3 Xrotation Yrotation Zrotation
		JOINT Hips
		{
			OFFSET -0.000000 -0.000000 -0.000000
			CHANNELS 3 Xrotation Yrotation Zrotation
			JOINT Spine
			{
				OFFSET 0.000000 10.199997 -0.299500
				CHANNELS 3 Xrotation Yrotation Zrotation
				JOINT Spine1
				{
					OFFSET 0.000000 11.900002 -1.516600
					CHANNELS 3 Xrotation Yrotation Zrotation
					JOINT Spine2
					{
						OFFSET 0.000000 13.600006 -2.842500
						CHANNELS 3 Xrotation Yrotation Zrotation
						JOINT Neck_virtual
						{
							OFFSET 0.000000 0.000000 0.000000
							CHANNELS 3 Xrotation Yrotation Zrotation
							JOINT Neck
							{
								OFFSET 0.000000 9.624100 -2.890100
								CHANNELS 3 Xrotation Yrotation Zrotation
								JOINT Head
								{
									OFFSET 0.000000 14.068802 -1.351900
									CHANNELS 3 Xrotation Yrotation Zrotation
									End Site
									{
										OFFSET 0 0 0
									}
								}
							}
						}
						JOINT LeftShoulder_virtual
						{
							OFFSET 0.000000 0.000000 0.000000
							CHANNELS 3 Xrotation Yrotation Zrotation
							JOINT LeftShoulder
							{
								OFFSET 15.263000 10.923401 -0.547700
								CHANNELS 3 Xrotation Yrotation Zrotation
								JOINT LeftArm
								{
									OFFSET 25.438599 -2.830597 -13.032500
									CHANNELS 3 Xrotation Yrotation Zrotation
									JOINT LeftForeArm
									{
										OFFSET 29.960503 0.000000 0.000000
										CHANNELS 3 Xrotation Yrotation Zrotation
										JOINT LeftHand
										{
											OFFSET 27.849251 0.000000 0.000000
											CHANNELS 3 Xrotation Yrotation Zrotation
											End Site
											{
												OFFSET 0 0 0
											}
										}
									}
								}
							}
						}
						JOINT RightShoulder_virtual
						{
							OFFSET 0.000000 0.000000 0.000000
							CHANNELS 3 Xrotation Yrotation Zrotation
							JOINT RightShoulder
							{
								OFFSET -15.263000 10.923401 -0.547700
								CHANNELS 3 Xrotation Yrotation Zrotation
								JOINT RightArm
								{
									OFFSET -25.438599 -2.830597 -13.032500
									CHANNELS 3 Xrotation Yrotation Zrotation
									JOINT RightForeArm
									{
										OFFSET -29.960503 0.000000 0.000000
										CHANNELS 3 Xrotation Yrotation Zrotation
										JOINT RightHand
										{
											OFFSET -27.849251 0.000000 0.000000
											CHANNELS 3 Xrotation Yrotation Zrotation
											End Site
											{
												OFFSET 0 0 0
											}
										}
									}
								}
							}
						}
					}
				}
			}
		}
	}
}
MOTION
Frames: 8
Frame Time: 0.03333333
0.627958 92.469025 3.714249 0.000000 0.000000 0.000000 -4.448119 -0.535704 1.343172 -7.094108 7.236134 5.705534 21.173766 9.853707 2.455823 -6.788168 6.647671 -9.129577 0.000000 0.000000 0.000000 -4.890694 0.900131 1.111816 -4.264695 -10.678418 -7.758871 18.657545 -9.188045 0.677882 -9.411185 -6.386428 10.172067 0.000000 0.000000 0.000000 -5.045961 0.020224 1.602095 -0.149396 0.354566 -1.283255 4.217036 1.414299 -2.530983 0.893198 0.112708 -0.176516 0.000000 0.000000 0.000000 0.290639 0.600012 -0.316574 0.715463 -0.970695 0.351522 0.000000 0.000000 0.000000 0.341357 0.810244 -0.594118 2.859609 -6.348098 -12.196980 -8.369386 -8.610362 -61.176290 0.939753 -19.927594 -0.350879 0.000000 0.000000 0.000000 0.737388 0.717021 -0.450395 2.687500 1.664475 15.640421 -0.596472 7.662822 63.256035 0.663337 18.242660 0.185161 0.000000 0.000000 0.000000 
0.596827 92.464806 3.605705 0.000000 0.000000 0.000000 -4.516185 -0.314179 1.408796 -7.072753 7.151439 5.630781 20.979860 9.760117 2.475388 -6.884807 6.651025 -9.286768 0.000000 0.000000 0.000000 -4.952614 1.094677 1.156662 -4.104471 -10.700039 -7.750152 18.489119 -9.095845 0.679953 -9.309966 -6.401492 10.326228 0.000000 0.000000 0.000000 -5.100710 0.210265 1.637847 -0.149989 0.420543 -1.236351 4.253173 1.529274 -2.441388 0.902445 0.182159 -0.181538 0.000000 0.000000 0.000000 0.321385 0.642767 -0.327117 0.737526 -0.967128 0.329660 0.000000 0.000000 0.000000 0.357288 0.881601 -0.581825 2.832428 -5.954268 -12.212047 -7.745645 -8.016184 -61.214805 0.928441 -19.087013 -0.379931 0.000000 0.000000 0.000000 0.746253 0.761252 -0.455979 2.680861 1.886521 15.561608 -1.398265 8.355540 63.035563 0.634185 18.534792 0.182430 0.000000 0.000000 0.000000 
0.527682 92.437325 3.360466 0.000000 0.000000 0.000000 -4.723278 0.211590 1.548970 -7.253768 6.999303 5.600818 21.052579 9.550227 2.436615 -7.077707 6.424057 -9.584322 0.000000 0.000000 0.000000 -5.165948 1.592188 1.269110 -3.977712 -10.622642 -7.653563 18.757347 -9.127563 0.651555 -9.613636 -6.763286 10.140747 0.000000 0.000000 0.000000 -5.292191 0.659261 1.742542 -0.161763 0.451536 -1.202287 4.393356 1.752502 -2.296313 0.957982 0.278167 -0.172486 0.000000 0.000000 0.000000 0.395904 0.730255 -0.324845 0.769448 -0.968689 0.310864 0.000000 0.000000 0.000000 0.419627 0.983857 -0.547486 2.808651 -5.671815 -12.205058 -6.864159 -6.785867 -61.271967 0.928579 -18.014829 -0.365641 0.000000 0.000000 0.000000 0.794110 0.838936 -0.440489 2.686968 2.153965 15.489023 -2.507370 9.463949 62.633770 0.590816 19.136529 0.167177 0.000000 0.000000 0.000000 
0.439823 92.388397 3.025311 0.000000 0.000000 0.000000 -5.033728 0.962591 1.746626 -7.600015 6.827668 5.608422 21.407920 9.274611 2.339869 -7.334525 6.020731 -9.919540 0.000000 0.000000 0.000000 -5.489287 2.325429 1.434839 -3.895009 -10.494305 -7.506246 19.358954 -9.284198 0.620493 -10.335972 -7.415004 9.693193 0.000000 0.000000 0.000000 -5.597644 1.303721 1.898360 -0.179476 0.476375 -1.207249 4.596717 2.049288 -2.133119 1.050691 0.377489 -0.151103 0.000000 0.000000 0.000000 0.504658 0.836375 -0.305293 0.806791 -0.977031 0.300330 0.000000 0.000000 0.000000 0.511038 1.091244 -0.500578 2.788150 -5.572206 -12.202419 -5.880984 -5.140548 -61.345467 0.923449 -16.990044 -0.323878 0.000000 0.000000 0.000000 0.876088 0.931440 -0.410069 2.704526 2.428780 15.455714 -3.544167 10.748081 62.088352 0.555819 20.100972 0.164129 0.000000 0.000000 0.000000 
0.331309 92.319000 2.650639 0.000000 0.000000 0.000000 -5.416328 1.812127 1.963231 -8.033730 6.686979 5.659283 22.005828 8.973077 2.202363 -7.656233 5.526763 -10.182682 0.000000 0.000000 0.000000 -5.874388 3.184006 1.630530 -3.849686 -10.359328 -7.340158 20.153552 -9.496647 0.613945 -11.121870 -8.194052 9.221085 0.000000 0.000000 0.000000 -5.982214 2.085345 2.078383 -0.207093 0.519739 -1.241293 4.814004 2.375015 -1.988238 1.158873 0.467906 -0.118040 0.000000 0.000000 0.000000 0.628569 0.935684 -0.265231 0.843783 -0.993199 0.300898 0.000000 0.000000 0.000000 0.617965 1.186341 -0.448894 2.781176 -5.629258 -12.199450 -4.806968 -3.244762 -61.450488 0.897697 -16.175353 -0.278545 0.000000 0.000000 0.000000 0.973302 1.021160 -0.371378 2.716989 2.687671 15.451380 -4.327646 11.991915 61.476620 0.529058 21.463653 0.185098 0.000000 0.000000 0.000000 
0.209565 92.238968 2.286026 0.000000 0.000000 0.000000 -5.811982 2.650129 2.163628 -8.443346 6.612683 5.733433 22.704826 8.675128 2.053151 -8.082815 5.032959 -10.291807 0.000000 0.000000 0.000000 -6.265841 4.052465 1.827744 -3.812875 -10.251590 -7.192186 20.916580 -9.714987 0.630323 -11.697645 -8.979990 8.862509 0.000000 0.000000 0.000000 -6.400459 2.901863 2.257586 -0.251122 0.557679 -1.268860 4.989084 2.691355 -1.893542 1.257617 0.539913 -0.071708 0.000000 0.000000 0.000000 0.737066 1.018177 -0.212645 0.875046 -1.015992 0.312805 0.000000 0.000000 0.000000 0.713543 1.260017 -0.393907 2.780084 -5.811582 -12.203926 -3.723161 -1.314313 -61.598942 0.837853 -15.549103 -0.244791 0.000000 0.000000 0.000000 1.068487 1.095714 -0.328439 2.727900 2.893216 15.472521 -4.814219 13.046090 60.925841 0.532260 23.019471 0.208877 0.000000 0.000000 0.000000 
0.095906 92.170944 1.940594 0.000000 0.000000 0.000000 -6.177334 3.377888 2.322799 -8.756342 6.574251 5.795316 23.374516 8.403682 1.923174 -8.628469 4.606748 -10.212137 0.000000 0.000000 0.000000 -6.630810 4.826034 1.995084 -3.784273 -10.184800 -7.095607 21.514536 -9.903205 0.646061 -11.972548 -9.708131 8.632098 0.000000 0.000000 0.000000 -6.808964 3.657610 2.416421 -0.277990 0.594109 -1.260576 5.106737 2.973910 -1.856820 1.333775 0.598149 -0.018136 0.000000 0.000000 0.000000 0.818595 1.081145 -0.153150 0.898050 -1.042233 0.328868 0.000000 0.000000 0.000000 0.783230 1.316246 -0.339351 2.775458 -6.040687 -12.214366 -2.665244 0.578396 -61.780345 0.748418 -15.040449 -0.225120 0.000000 0.000000 0.000000 1.152933 1.157783 -0.288247 2.721368 3.061450 15.491579 -5.143541 13.898473 60.526486 0.566168 24.522785 0.223406 0.000000 0.000000 0.000000 
-0.001429 92.129517 1.641556 0.000000 0.000000 0.000000 -6.472346 3.933309 2.429968 -8.919670 6.556714 5.833193 23.902302 8.154891 1.829778 -9.250925 4.294797 -9.973145 0.000000 0.000000 0.000000 -6.936466 5.432648 2.125627 -3.763430 -10.177885 -7.051560 21.900322 -10.058119 0.643971 -11.940262 -10.341519 8.513279 0.000000 0.000000 0.000000 -7.162713 4.279596 2.544431 -0.294512 0.604632 -1.232444 5.174749 3.211463 -1.871410 1.377605 0.650114 0.032213 0.000000 0.000000 0.000000 0.866566 1.130948 -0.094196 0.908244 -1.068161 0.342844 0.000000 0.000000 0.000000 0.825945 1.366219 -0.289213 2.763533 -6.260348 -12.181521 -1.611581 2.301074 -61.992846 0.637269 -14.671784 -0.241802 0.000000 0.000000 0.000000 1.210988 1.209955 -0.251804 2.696007 3.206781 15.480255 -5.440093 14.611528 60.312551 0.606888 25.795316 0.217138 0.000000 0.000000 0.000000 
